<svg width="16" height="8" viewBox="0 0 16 8" fill="none" xmlns="http://www.w3.org/2000/svg">
<path d="M7.99254 0.0941674C7.85715 0.0961471 7.72786 0.150826 7.63214 0.246593L0.868515 7.01022C0.818584 7.05816 0.778719 7.11558 0.751257 7.17912C0.723795 7.24266 0.709288 7.31104 0.708584 7.38026C0.70788 7.44948 0.720995 7.51814 0.747159 7.58223C0.773323 7.64631 0.812012 7.70453 0.860958 7.75348C0.909905 7.80243 0.968126 7.84112 1.03221 7.86728C1.0963 7.89344 1.16496 7.90656 1.23418 7.90585C1.3034 7.90515 1.37178 7.89064 1.43532 7.86318C1.49886 7.83572 1.55628 7.79586 1.60422 7.74592L7.99999 1.35015L14.3958 7.74592C14.4437 7.79586 14.5011 7.83572 14.5647 7.86318C14.6282 7.89064 14.6966 7.90515 14.7658 7.90585C14.835 7.90656 14.9037 7.89344 14.9678 7.86728C15.0319 7.84111 15.0901 7.80243 15.139 7.75348C15.188 7.70453 15.2267 7.64631 15.2528 7.58223C15.279 7.51814 15.2921 7.44948 15.2914 7.38026C15.2907 7.31104 15.2762 7.24266 15.2487 7.17912C15.2213 7.11558 15.1814 7.05816 15.1315 7.01022L8.36785 0.246593C8.31866 0.197384 8.2601 0.15854 8.19563 0.132359C8.13117 0.106178 8.06211 0.0931912 7.99254 0.0941674Z" fill="#EC0000"/>
</svg>
