<svg width="14" height="8" viewBox="0 0 14 8" fill="none" xmlns="http://www.w3.org/2000/svg">
<path d="M13.4955 -0.00718466C13.3634 -0.00406635 13.238 0.051169 13.1465 0.146461L7.00001 6.29295L0.853525 0.146461C0.806919 0.0984658 0.751157 0.0603102 0.689539 0.0342541C0.627921 0.00819797 0.561702 -0.00522888 0.494801 -0.00523154C0.395294 -0.00520727 0.298057 0.0245043 0.21553 0.080102C0.133004 0.1357 0.0689419 0.214655 0.0315403 0.306866C-0.00586129 0.399076 -0.0149013 0.500349 0.00557676 0.597726C0.0260549 0.695103 0.0751198 0.784157 0.146494 0.853492L6.64649 7.35349C6.74027 7.44723 6.86742 7.49988 7.00001 7.49988C7.1326 7.49988 7.25975 7.44723 7.35353 7.35349L13.8535 0.853492C13.9262 0.783706 13.9762 0.693579 13.9968 0.594925C14.0174 0.496271 14.0077 0.393696 13.969 0.300647C13.9302 0.207598 13.8643 0.128417 13.7798 0.0734854C13.6953 0.0185538 13.5962 -0.00956502 13.4955 -0.00718466Z" fill="#EC0000"/>
</svg>
