<svg width="24" height="25" viewBox="0 0 24 25" fill="none" xmlns="http://www.w3.org/2000/svg">
<path d="M0.984356 17.6523C0.719367 17.6565 0.466855 17.7656 0.282285 17.9558C0.0977151 18.146 -0.00382033 18.4017 -1.90568e-05 18.6667V21.3333C-1.90568e-05 23.3465 1.65346 25 3.66665 25H20.3333C22.3465 25 24 23.3465 24 21.3333V18.6667C24.0019 18.5341 23.9774 18.4026 23.928 18.2796C23.8785 18.1566 23.8052 18.0447 23.7121 17.9504C23.6191 17.856 23.5082 17.781 23.386 17.7299C23.2637 17.6788 23.1325 17.6524 23 17.6524C22.8675 17.6524 22.7363 17.6788 22.614 17.7299C22.4917 17.781 22.3809 17.856 22.2878 17.9504C22.1948 18.0447 22.1214 18.1566 22.072 18.2796C22.0226 18.4026 21.9981 18.5341 22 18.6667V21.3333C22 22.2655 21.2655 23 20.3333 23H3.66665C2.7345 23 1.99998 22.2655 1.99998 21.3333V18.6667C2.0019 18.5328 1.97693 18.3999 1.92656 18.2759C1.87618 18.1519 1.80142 18.0393 1.70671 17.9447C1.612 17.8501 1.49926 17.7755 1.37518 17.7253C1.2511 17.675 1.1182 17.6502 0.984356 17.6523Z" fill="#EC0000"/>
<path d="M11.2821 19.3629C11.4667 19.553 11.7192 19.6622 11.9842 19.6663C12.1181 19.6684 12.251 19.6436 12.375 19.5934C12.4991 19.5432 12.6119 19.4686 12.7066 19.374C12.8013 19.2794 12.876 19.1668 12.9264 19.0427C12.9768 18.9187 13.0018 18.7859 12.9998 18.652V4.3994L15.2928 6.69237C15.385 6.78834 15.4953 6.86496 15.6174 6.91775C15.7396 6.97053 15.871 6.99841 16.004 6.99977C16.1371 7.00112 16.2691 6.97591 16.3922 6.92562C16.5154 6.87533 16.6273 6.80097 16.7214 6.7069C16.8155 6.61282 16.8898 6.50091 16.9401 6.37774C16.9904 6.25456 17.0156 6.12259 17.0143 5.98955C17.0129 5.85651 16.985 5.72508 16.9322 5.60295C16.8795 5.48082 16.8028 5.37046 16.7069 5.27831L12.7069 1.27831C12.5193 1.09084 12.265 0.985535 11.9998 0.985535C11.7347 0.985535 11.4803 1.09084 11.2928 1.27831L7.29281 5.27831C7.15006 5.41698 7.05193 5.59509 7.01097 5.78984C6.97002 5.9846 6.9881 6.18714 7.0629 6.37156C7.1377 6.55599 7.26583 6.7139 7.43088 6.82509C7.59593 6.93629 7.79041 6.99571 7.98942 6.99576C8.12322 6.99575 8.25566 6.9689 8.3789 6.91679C8.50213 6.86467 8.61366 6.78836 8.70687 6.69237L10.9998 4.3994V18.652C10.996 18.917 11.0976 19.1727 11.2821 19.3629Z" fill="#EC0000"/>
</svg>
