<svg width="28" height="28" viewBox="0 0 28 28" fill="none" xmlns="http://www.w3.org/2000/svg">
<path d="M14 0.665344C6.64822 0.665344 0.666687 6.64687 0.666687 13.9987C0.666687 16.1822 1.24183 18.2232 2.1745 20.0429L0.729187 25.2174C0.392552 26.4197 1.5813 27.6084 2.78387 27.2721L7.96226 25.8268C9.78051 26.7575 11.8185 27.332 14 27.332C21.3518 27.332 27.3334 21.3505 27.3334 13.9987C27.3334 6.64687 21.3518 0.665344 14 0.665344ZM14 2.66534C20.2709 2.66534 25.3334 7.72782 25.3334 13.9987C25.3334 20.2695 20.2709 25.332 14 25.332C11.999 25.332 10.1271 24.8117 8.49481 23.9023C8.26473 23.7741 7.99335 23.7418 7.7396 23.8125L2.81512 25.1862L4.19012 20.2643C4.26116 20.0102 4.22886 19.7382 4.10028 19.5078C3.18912 17.8743 2.66669 16.0017 2.66669 13.9987C2.66669 7.72782 7.72916 2.66534 14 2.66534ZM9.49351 7.99998C9.28084 7.99998 8.93722 8.07975 8.64455 8.39842C8.35255 8.71575 7.52997 9.4854 7.52997 11.0521C7.52997 12.6187 8.67011 14.1317 8.82945 14.345C8.98811 14.5564 11.0316 17.875 14.2682 19.151C16.9576 20.211 17.5046 19.9999 18.0886 19.9466C18.6726 19.8946 19.973 19.1776 20.2383 18.4336C20.5036 17.6896 20.5038 17.0532 20.4258 16.9219C20.3465 16.7892 20.1338 16.7088 19.8151 16.5495C19.4971 16.3901 17.9326 15.6203 17.6406 15.5143C17.3486 15.4083 17.1352 15.3545 16.9232 15.6732C16.7112 15.9918 16.1014 16.7086 15.9154 16.9206C15.7294 17.1339 15.5439 17.1606 15.2253 17.0013C14.9059 16.8406 13.8814 16.5052 12.6641 15.4206C11.7174 14.5772 11.0806 13.5348 10.8946 13.2161C10.7092 12.8988 10.8745 12.7244 11.0339 12.5664C11.1772 12.4237 11.3524 12.1951 11.5117 12.0091C11.6697 11.8231 11.7221 11.6911 11.8281 11.4791C11.9341 11.2678 11.8814 11.0812 11.8021 10.9219C11.7228 10.7625 11.1037 9.18727 10.8203 8.55727C10.5823 8.02794 10.3315 8.01646 10.1042 8.00779C9.91885 8.00046 9.70551 7.99998 9.49351 7.99998Z" fill="#EC0000"/>
</svg>
